<?xml version="1.0" standalone="no"?>
<!DOCTYPE svg PUBLIC "-//W3C//DTD SVG 20010904//EN"
 "http://www.w3.org/TR/2001/REC-SVG-20010904/DTD/svg10.dtd">
<svg version="1.0" xmlns="http://www.w3.org/2000/svg"
 width="400.000000pt" height="400.000000pt" viewBox="0 0 400.000000 400.000000"
 preserveAspectRatio="xMidYMid meet">
<metadata>
Created by potrace 1.16, written by Peter Selinger 2001-2019
</metadata>
<g transform="translate(0.000000,400.000000) scale(0.100000,-0.100000)"
fill="#000000" stroke="none">
<path d="M1380 3985 c-313 -54 -628 -207 -795 -386 -101 -108 -148 -192 -171
-299 -14 -69 -8 -180 10 -181 5 0 17 24 26 53 71 229 261 405 537 497 164 55
222 64 418 64 398 0 568 -77 890 -403 l120 -121 -105 46 c-161 71 -256 122
-355 190 -176 123 -317 178 -516 203 -150 19 -272 9 -484 -40 -145 -34 -192
-53 -249 -101 -44 -38 -44 -50 4 -115 68 -94 249 -195 444 -246 130 -35 253
-54 391 -61 531 -28 865 -119 1034 -282 55 -53 60 -60 30 -43 -138 78 -332
125 -834 200 -77 11 -176 29 -220 39 -44 10 -111 24 -150 30 -311 51 -422 78
-523 127 -93 45 -169 120 -214 208 l-34 68 -35 -48 c-19 -27 -58 -86 -88 -132
-62 -94 -72 -142 -51 -244 39 -198 189 -371 473 -544 51 -31 124 -78 162 -104
39 -27 108 -68 155 -92 123 -62 195 -138 259 -270 84 -177 102 -317 72 -566
-29 -237 14 -390 134 -474 l42 -30 5 -97 c7 -140 51 -228 159 -317 100 -82
217 -124 345 -124 106 0 173 22 232 75 60 54 89 112 98 198 8 84 -6 125 -61
176 -49 45 -72 54 -136 49 -40 -3 -46 -7 -62 -41 -11 -21 -16 -45 -13 -54 6
-14 10 -11 26 15 36 59 70 32 70 -55 0 -81 -56 -146 -155 -179 -172 -59 -305
77 -305 312 0 128 30 265 115 521 72 215 74 375 5 521 -31 66 -109 175 -138
191 -41 25 5 8 71 -25 82 -41 84 -44 92 -99 6 -41 21 -114 51 -245 63 -282
223 -600 370 -741 104 -98 210 -163 526 -322 175 -87 225 -117 253 -150 44
-52 71 -123 79 -212 23 -272 29 -326 40 -322 6 2 26 29 44 59 l33 55 72 6
c133 10 271 82 349 181 70 89 78 123 78 327 l0 176 -37 67 c-20 37 -60 92 -87
123 -41 46 -54 69 -68 127 -28 109 -110 217 -220 287 -27 17 -47 33 -46 34 6
6 268 -85 315 -109 47 -24 94 -66 126 -116 16 -23 17 -16 17 142 l0 166 -38
34 c-65 59 -127 97 -274 167 -198 94 -238 139 -238 267 0 50 9 88 39 172 49
134 61 192 61 292 0 282 -150 509 -428 649 -45 23 -126 57 -179 78 -156 58
-203 100 -354 311 -146 204 -257 306 -424 390 -172 86 -299 112 -539 111 -94
-1 -205 -7 -246 -14z m1400 -1015 c105 -72 260 -251 320 -370 60 -120 63 -137
61 -365 -1 -115 -4 -212 -7 -214 -13 -13 -85 121 -102 189 -6 25 -18 95 -27
155 -20 134 -38 210 -70 281 -28 62 -139 217 -234 323 -61 68 -63 73 -31 56
19 -10 60 -35 90 -55z m-1952 -89 c87 -61 298 -142 461 -178 99 -21 156 -26
386 -33 323 -10 437 -24 580 -71 134 -44 263 -130 334 -223 64 -83 126 -223
150 -341 5 -22 21 -98 35 -170 15 -72 39 -157 55 -190 37 -79 107 -162 181
-216 64 -46 74 -57 38 -38 -57 29 -131 94 -172 152 -59 82 -92 157 -154 350
-79 240 -127 333 -226 437 -159 166 -322 214 -816 240 -317 16 -476 50 -675
145 -94 45 -230 137 -218 148 9 10 12 9 41 -12z m266 -255 c161 -54 311 -76
677 -101 415 -28 541 -66 689 -206 67 -63 60 -62 -26 3 -27 20 -73 49 -102 63
-142 70 -249 85 -677 95 -192 5 -361 11 -375 15 -14 3 -45 11 -70 17 -50 12
-221 101 -246 129 -24 26 -9 42 24 25 15 -7 63 -25 106 -40z m655 -619 c60
-46 102 -99 134 -167 19 -40 22 -62 21 -190 -1 -129 -4 -157 -31 -255 -17 -60
-47 -175 -68 -255 -21 -80 -40 -147 -43 -150 -2 -3 -21 14 -42 37 -73 82 -102
256 -74 447 12 89 15 156 11 260 -8 189 -30 263 -110 368 l-35 45 92 -49 c50
-28 115 -69 145 -91z m1363 -120 c52 -26 57 -32 75 -86 35 -101 100 -184 213
-274 l35 -27 -70 26 c-38 15 -79 29 -90 32 -86 23 -184 140 -282 337 -72 143
-72 149 0 80 35 -33 88 -73 119 -88z m-777 -62 c52 -73 79 -127 134 -265 63
-155 109 -235 206 -355 l40 -50 -65 50 c-99 76 -211 194 -273 287 -85 128
-134 254 -172 448 l-7 35 47 -45 c26 -25 66 -72 90 -105z m589 -381 c85 -84
131 -107 291 -145 66 -16 147 -37 180 -46 67 -18 187 -73 224 -101 24 -19 23
-19 -40 -6 -35 7 -128 22 -207 34 -155 22 -241 49 -328 101 -81 49 -165 137
-206 216 -31 59 -88 202 -88 221 0 3 23 -41 52 -99 41 -83 66 -118 122 -175z
m202 -513 c38 -11 103 -27 144 -36 227 -48 324 -88 395 -161 76 -78 90 -113
90 -229 0 -90 -3 -105 -28 -153 -35 -67 -92 -124 -156 -156 l-49 -25 14 52
c18 67 18 207 0 275 -25 92 -72 179 -124 230 -33 31 -103 75 -208 131 -145 76
-207 114 -163 98 9 -3 47 -15 85 -26z"/>
<path d="M316 3012 c-115 -172 -156 -288 -156 -438 0 -114 15 -168 89 -323 73
-153 86 -204 71 -278 -19 -89 -77 -139 -215 -188 -115 -40 -105 -31 -105 -97
0 -53 2 -59 18 -53 9 5 44 17 77 27 149 47 193 69 234 113 22 24 48 61 57 82
23 51 23 201 1 261 -9 23 -15 42 -13 42 11 0 119 -208 130 -252 28 -112 -10
-151 -204 -203 -119 -32 -200 -67 -251 -106 l-50 -40 4 -277 c3 -254 5 -283
26 -352 26 -86 24 -140 -8 -174 -12 -13 -21 -36 -21 -54 0 -31 1 -32 44 -32
33 0 56 8 92 32 63 42 94 98 102 186 l7 67 21 -75 c14 -52 26 -76 37 -78 14
-3 17 5 17 40 0 88 21 344 31 383 6 22 30 70 55 106 54 81 109 110 217 117 87
6 156 -9 337 -71 143 -50 147 -50 272 -51 146 -1 166 7 206 84 18 37 22 60 21
135 0 49 -3 107 -7 128 l-7 38 -84 -66 c-139 -109 -275 -165 -330 -136 -26 15
-51 61 -51 98 0 38 -8 48 -52 66 -36 15 -56 49 -46 79 3 7 -9 19 -26 28 -27
13 -31 21 -34 60 -4 78 -8 84 -56 99 -82 24 -82 23 -62 139 31 174 27 203 -42
350 -93 194 -175 414 -212 566 -18 76 -26 94 -34 85 -17 -17 -128 -258 -145
-313 -36 -118 -35 -255 3 -381 4 -11 -1 -5 -9 13 -9 19 -21 70 -27 114 -19
135 9 257 108 469 30 63 54 118 54 122 0 24 -27 -5 -84 -91z m45 -1632 c-92
-73 -126 -134 -140 -252 l-7 -63 -12 53 c-7 29 -12 77 -12 107 0 46 4 59 31
90 26 30 156 104 182 105 5 0 -14 -18 -42 -40z"/>
</g>
</svg>
